<svg width="34" height="35" viewBox="0 0 34 35" fill="none" xmlns="http://www.w3.org/2000/svg">
<g id="BoundingBox">
<path id="Vector" d="M27.75 13.4986C28.3026 13.4986 28.8325 13.2791 29.2232 12.8884C29.6139 12.4977 29.8334 11.9678 29.8334 11.4152V7.24856C29.8334 6.69602 29.6139 6.16612 29.2232 5.77542C28.8325 5.38472 28.3026 5.16522 27.75 5.16522H23.5834C23.0308 5.16522 22.5009 5.38472 22.1102 5.77542C21.7195 6.16612 21.5 6.69602 21.5 7.24856V8.29022H13.1667V7.24856C13.1667 6.69602 12.9472 6.16612 12.5565 5.77542C12.1658 5.38472 11.6359 5.16522 11.0834 5.16522H6.91671C6.36417 5.16522 5.83427 5.38472 5.44357 5.77542C5.05287 6.16612 4.83337 6.69602 4.83337 7.24856V11.4152C4.83337 11.9678 5.05287 12.4977 5.44357 12.8884C5.83427 13.2791 6.36417 13.4986 6.91671 13.4986H7.95837V21.8319H6.91671C6.36417 21.8319 5.83427 22.0514 5.44357 22.4421C5.05287 22.8328 4.83337 23.3627 4.83337 23.9152V28.0819C4.83337 28.6344 5.05287 29.1643 5.44357 29.555C5.83427 29.9457 6.36417 30.1652 6.91671 30.1652H11.0834C11.6359 30.1652 12.1658 29.9457 12.5565 29.555C12.9472 29.1643 13.1667 28.6344 13.1667 28.0819V27.0402H21.5V28.0819C21.5 28.6344 21.7195 29.1643 22.1102 29.555C22.5009 29.9457 23.0308 30.1652 23.5834 30.1652H27.75C28.3026 30.1652 28.8325 29.9457 29.2232 29.555C29.6139 29.1643 29.8334 28.6344 29.8334 28.0819V23.9152C29.8334 23.3627 29.6139 22.8328 29.2232 22.4421C28.8325 22.0514 28.3026 21.8319 27.75 21.8319H26.7084V13.4986H27.75ZM24.625 21.8319H23.5834C23.0308 21.8319 22.5009 22.0514 22.1102 22.4421C21.7195 22.8328 21.5 23.3627 21.5 23.9152V24.9569H13.1667V23.9152C13.1667 23.3627 12.9472 22.8328 12.5565 22.4421C12.1658 22.0514 11.6359 21.8319 11.0834 21.8319H10.0417V13.4986H11.0834C11.6359 13.4986 12.1658 13.2791 12.5565 12.8884C12.9472 12.4977 13.1667 11.9678 13.1667 11.4152V10.3736H21.5V11.4152C21.5 11.9678 21.7195 12.4977 22.1102 12.8884C22.5009 13.2791 23.0308 13.4986 23.5834 13.4986H24.625V21.8319Z" fill="white"/>
</g>
</svg>
