<svg width="34" height="35" viewBox="0 0 34 35" fill="none" xmlns="http://www.w3.org/2000/svg">
<g id="Code">
<path id="Vector" d="M28.4584 6.20654H5.54171C4.98917 6.20654 4.45927 6.42604 4.06857 6.81674C3.67787 7.20744 3.45837 7.73734 3.45837 8.28988V27.0399C3.45837 27.5924 3.67787 28.1223 4.06857 28.513C4.45927 28.9037 4.98917 29.1232 5.54171 29.1232H28.4584C29.0109 29.1232 29.5408 28.9037 29.9315 28.513C30.3222 28.1223 30.5417 27.5924 30.5417 27.0399V8.28988C30.5417 7.73734 30.3222 7.20744 29.9315 6.81674C29.5408 6.42604 29.0109 6.20654 28.4584 6.20654ZM12.4167 19.9565C12.6377 20.1223 12.7838 20.3691 12.8229 20.6426C12.862 20.9161 12.7908 21.1939 12.625 21.4149C12.4593 21.6359 12.2125 21.782 11.939 21.8211C11.6655 21.8601 11.3877 21.789 11.1667 21.6232L7.00004 18.4982C6.87067 18.4012 6.76567 18.2754 6.69335 18.1307C6.62103 17.9861 6.58337 17.8266 6.58337 17.6649C6.58337 17.5032 6.62103 17.3437 6.69335 17.199C6.76567 17.0544 6.87067 16.9286 7.00004 16.8315L11.1667 13.7065C11.3877 13.5408 11.6655 13.4696 11.939 13.5087C12.2125 13.5477 12.4593 13.6939 12.625 13.9149C12.7908 14.1359 12.862 14.4137 12.8229 14.6872C12.7838 14.9607 12.6377 15.2074 12.4167 15.3732L9.36072 17.6649L12.4167 19.9565ZM20.0847 10.6597L15.918 25.243C15.8825 25.3769 15.8207 25.5023 15.7361 25.612C15.6515 25.7216 15.5459 25.8133 15.4255 25.8817C15.3051 25.9501 15.1722 25.9938 15.0347 26.0102C14.8972 26.0266 14.7578 26.0155 14.6247 25.9774C14.4915 25.9393 14.3673 25.875 14.2593 25.7884C14.1513 25.7017 14.0616 25.5944 13.9956 25.4726C13.9295 25.3509 13.8884 25.2172 13.8747 25.0794C13.8609 24.9416 13.8748 24.8025 13.9154 24.6701L18.0821 10.0868C18.1622 9.82599 18.3413 9.60705 18.5811 9.47697C18.8209 9.34689 19.1021 9.31605 19.3644 9.39107C19.6266 9.4661 19.849 9.64101 19.9837 9.87822C20.1184 10.1154 20.1546 10.396 20.0847 10.6597ZM27 18.4982L22.8334 21.6232C22.6124 21.789 22.3346 21.8601 22.0611 21.8211C21.7876 21.782 21.5408 21.6359 21.375 21.4149C21.2093 21.1939 21.1381 20.9161 21.1772 20.6426C21.2162 20.3691 21.3624 20.1223 21.5834 19.9565L24.6394 17.6649L21.5834 15.3732C21.4739 15.2911 21.3817 15.1883 21.312 15.0706C21.2424 14.9529 21.1965 14.8226 21.1772 14.6872C21.1578 14.5518 21.1654 14.4139 21.1993 14.2814C21.2332 14.1488 21.293 14.0243 21.375 13.9149C21.4571 13.8054 21.5599 13.7132 21.6777 13.6435C21.7954 13.5739 21.9256 13.528 22.0611 13.5087C22.1965 13.4893 22.3344 13.4969 22.4669 13.5308C22.5994 13.5647 22.7239 13.6245 22.8334 13.7065L27 16.8315C27.1294 16.9286 27.2344 17.0544 27.3067 17.199C27.3791 17.3437 27.4167 17.5032 27.4167 17.6649C27.4167 17.8266 27.3791 17.9861 27.3067 18.1307C27.2344 18.2754 27.1294 18.4012 27 18.4982Z" fill="white"/>
</g>
</svg>
