<svg width="154" height="45" viewBox="0 0 154 45" fill="none" xmlns="http://www.w3.org/2000/svg">
<path d="M44.9014 20.7366V20.5892C44.9069 16.4257 43.6219 12.362 41.2217 8.95243C38.8216 5.54287 35.4231 2.9536 31.4901 1.53791C27.5571 0.122221 23.2812 -0.0509271 19.2457 1.0421C15.2102 2.13512 11.6118 4.44107 8.94136 7.64531C7.28654 7.21959 5.53182 7.42182 4.01847 8.21268C2.50513 9.00353 1.34134 10.3265 0.753467 11.9242C0.16559 13.5219 0.195647 15.2802 0.837793 16.8571C1.47994 18.434 2.68826 19.7167 4.22777 20.4559C4.22777 20.498 4.22777 20.5401 4.22777 20.5857C4.23459 24.9987 5.6872 29.289 8.36518 32.8057C11.0432 36.3224 14.8003 38.8734 19.0666 40.0718C19.2359 41.437 19.9028 42.693 20.9406 43.6012C21.9784 44.5095 23.315 45.0069 24.6968 44.9991C26.0786 44.9913 27.4095 44.4788 28.4369 43.5589C29.4643 42.639 30.1168 41.3757 30.2706 40.0086C32.9052 39.2359 35.3561 37.9417 37.4763 36.2037C39.5966 34.4656 41.3426 32.3194 42.6099 29.8935C42.8889 29.946 43.1721 29.973 43.456 29.9743C44.5913 29.9765 45.69 29.5741 46.5531 28.8398C47.4162 28.1055 47.9867 27.0879 48.1614 25.9711C48.3361 24.8543 48.1034 23.7121 47.5054 22.7513C46.9074 21.7905 45.9837 21.0746 44.9014 20.7331M24.6616 35.7267C25.4196 35.726 26.1609 35.9492 26.7916 36.368C27.4223 36.7868 27.914 37.3823 28.2046 38.0794C28.4952 38.7765 28.5716 39.5437 28.4241 40.2839C28.2766 41.0242 27.9119 41.7043 27.3761 42.2382C26.8403 42.7721 26.1575 43.1358 25.414 43.2833C24.6705 43.4308 23.8998 43.3555 23.1994 43.0668C22.4989 42.7782 21.9002 42.2892 21.479 41.6617C21.0577 41.0343 20.8329 40.2965 20.8329 39.5418C20.8329 38.5306 21.2361 37.5607 21.9541 36.8454C22.672 36.13 23.6458 35.7276 24.6616 35.7267ZM43.456 28.1843C42.8708 28.185 42.2986 28.0129 41.8117 27.6897C41.3248 27.3666 40.9452 26.9069 40.7207 26.3689C40.4963 25.8309 40.4372 25.2387 40.551 24.6673C40.6647 24.0959 40.9461 23.5708 41.3597 23.1587C41.7732 22.7465 42.3002 22.4657 42.8741 22.3518C43.448 22.2379 44.0429 22.296 44.5836 22.5188C45.1243 22.7415 45.5864 23.119 45.9116 23.6033C46.2368 24.0876 46.4104 24.6571 46.4104 25.2396C46.4085 26.0194 46.0968 26.7668 45.5432 27.3185C44.9897 27.8703 44.2393 28.1815 43.456 28.1843ZM36.3662 15.5492C36.3634 12.8832 35.2983 10.3272 33.4047 8.44208C31.5111 6.55693 28.9436 5.49663 26.2657 5.49384H19.0137L28.5326 21.5369L30.119 20.684L22.1831 7.28381H26.2762C27.3665 7.28381 28.4462 7.4976 29.4535 7.91297C30.4608 8.32835 31.3761 8.93718 32.147 9.7047C32.918 10.4722 33.5295 11.3834 33.9468 12.3862C34.364 13.389 34.5788 14.4638 34.5788 15.5492C34.5788 16.6347 34.364 17.7095 33.9468 18.7123C33.5295 19.7151 32.918 20.6263 32.147 21.3938C31.3761 22.1613 30.4608 22.7701 29.4535 23.1855C28.4462 23.6009 27.3665 23.8147 26.2762 23.8147H20.9386V25.6046H26.2657C27.7108 25.605 29.1387 25.2925 30.4504 24.6886L36.4438 34.751C34.5858 36.3028 32.4391 37.4751 30.1261 38.2011C29.8092 36.9947 29.098 35.9276 28.1046 35.1681C27.1112 34.4086 25.8922 33.9998 24.6397 34.0062C23.3871 34.0127 22.1724 34.4339 21.1869 35.2036C20.2015 35.9733 19.5014 37.0477 19.197 38.2572C16.8153 37.5312 14.6036 36.3379 12.6925 34.7475L23.4312 16.2863L21.8799 15.3738L11.3387 33.5051C8.03917 30.1744 6.14674 25.7119 6.05045 21.035C6.43556 21.1042 6.82606 21.1394 7.21739 21.1403C8.72877 21.1427 10.1989 20.6497 11.4008 19.7375C12.6028 18.8253 13.4696 17.5445 13.8675 16.093C14.2654 14.6414 14.1723 13.0998 13.6024 11.7062C13.0326 10.3126 12.0178 9.14457 10.7147 8.38236C13.2 5.57639 16.484 3.58951 20.1305 2.6856C23.777 1.78169 27.6135 2.00353 31.1303 3.32164C34.6472 4.63976 37.678 6.99177 39.8204 10.0653C41.9627 13.1389 43.1151 16.7885 43.1246 20.5296C42.127 20.6041 41.1784 20.99 40.4137 21.6323C39.6491 22.2745 39.1074 23.1405 38.8657 24.1069C38.624 25.0734 38.6945 26.0911 39.0674 27.0153C39.4402 27.9396 40.0963 28.7232 40.9423 29.2548C40.1075 30.8108 39.0546 32.2407 37.8152 33.5015L32.0334 23.8006C33.3768 22.879 34.4751 21.6461 35.2335 20.208C35.992 18.77 36.388 17.17 36.3874 15.5457M12.3082 14.2822C12.3089 15.2847 12.0109 16.2649 11.452 17.0988C10.893 17.9327 10.0982 18.5829 9.16801 18.967C8.23784 19.3511 7.21414 19.452 6.22638 19.2568C5.23863 19.0617 4.3312 18.5793 3.61888 17.8706C2.90657 17.162 2.42136 16.259 2.22465 15.2758C2.02793 14.2926 2.12854 13.2734 2.51375 12.3471C2.89896 11.4208 3.55146 10.6291 4.38871 10.072C5.22597 9.515 6.21037 9.21767 7.21739 9.21767C8.56638 9.21953 9.85963 9.7536 10.8138 10.7029C11.7681 11.6522 12.3054 12.9393 12.3082 14.2822Z" fill="#43B7B7"/>
<path d="M55.3191 30.9649C55.3079 30.5901 55.4096 30.2205 55.6112 29.9037C55.8128 29.587 56.1051 29.3376 56.4503 29.1876C56.7955 29.0376 57.178 28.994 57.5483 29.0623C57.9187 29.1306 58.2601 29.3077 58.5284 29.5708C58.7968 29.834 58.9799 30.171 59.0542 30.5387C59.1284 30.9063 59.0905 31.2876 58.9451 31.6336C58.7998 31.9795 58.5538 32.2742 58.2387 32.4798C57.9236 32.6853 57.554 32.7922 57.1774 32.7868C56.9322 32.8002 56.6869 32.7624 56.4573 32.676C56.2276 32.5895 56.0186 32.4563 55.8437 32.2848C55.6687 32.1133 55.5317 31.9073 55.4414 31.68C55.351 31.4527 55.3094 31.2091 55.3191 30.9649ZM55.8974 30.9649C55.8884 31.3163 56.0146 31.6578 56.25 31.9197C56.37 32.0468 56.5164 32.1463 56.679 32.2112C56.8416 32.2761 57.0165 32.3048 57.1915 32.2953C57.366 32.3048 57.5405 32.2754 57.7021 32.2092C57.8638 32.143 58.0086 32.0417 58.1259 31.9127C58.3425 31.6446 58.4606 31.3108 58.4606 30.9667C58.4606 30.6225 58.3425 30.2888 58.1259 30.0206C57.8737 29.7795 57.5376 29.6448 57.1879 29.6448C56.8383 29.6448 56.5022 29.7795 56.25 30.0206C56.0159 30.2791 55.8897 30.6169 55.8974 30.9649Z" fill="white"/>
<path d="M62.5719 29.2234V29.7148H61.2531V32.7162H60.6748V29.7148H59.349V29.2234H62.5719Z" fill="white"/>
<path d="M66.1819 32.7164H65.5049L64.2567 31.1964C64.199 31.2105 64.1398 31.2176 64.0804 31.2175H63.8335V32.7164H63.2552V29.2236H63.8335V30.7049H64.1227L65.0324 29.4833C65.09 29.4011 65.1672 29.3343 65.257 29.289C65.3468 29.2437 65.4466 29.2212 65.5472 29.2236H66.0973V29.715H65.5261L64.6657 30.8664L66.1819 32.7164Z" fill="white"/>
<path d="M66.9245 29.2233H67.5028V29.7358L67.4111 30.136H67.591C67.6678 29.8554 67.8366 29.6083 68.0705 29.434C68.3421 29.2431 68.6693 29.1469 69.0014 29.1601C69.2284 29.1527 69.4542 29.1947 69.6631 29.2833C69.872 29.3718 70.059 29.5047 70.2109 29.6727C70.51 30.0421 70.6731 30.5023 70.6731 30.9768C70.6731 31.4512 70.51 31.9114 70.2109 32.2809C70.059 32.4488 69.872 32.5817 69.6631 32.6703C69.4542 32.7588 69.2284 32.8008 69.0014 32.7934C68.6676 32.8069 68.3384 32.712 68.0635 32.5231C67.8286 32.3489 67.6587 32.1019 67.5804 31.821H67.4182L67.5099 32.2142V34.008H66.9316L66.9245 29.2233ZM67.5028 30.9785C67.4884 31.1604 67.5141 31.3432 67.5781 31.5142C67.642 31.6852 67.7427 31.8402 67.8731 31.9684C68.1336 32.2024 68.4743 32.328 68.8251 32.3195C68.9937 32.3245 69.1616 32.2961 69.319 32.2358C69.4764 32.1755 69.6202 32.0846 69.7419 31.9684C69.8661 31.8366 69.9616 31.6806 70.0223 31.5102C70.083 31.3398 70.1076 31.1588 70.0945 30.9785C70.107 30.7977 70.0822 30.6163 70.0215 30.4455C69.9609 30.2746 69.8657 30.1179 69.7419 29.9851C69.6202 29.8689 69.4764 29.778 69.319 29.7177C69.1616 29.6574 68.9937 29.629 68.8251 29.634C68.4771 29.6194 68.1367 29.7374 67.8731 29.964C67.7429 30.0939 67.6424 30.2502 67.5785 30.4222C67.5146 30.5943 67.4888 30.7781 67.5028 30.961" fill="white"/>
<path d="M72.8593 30.2136C73.8655 30.2136 74.3673 30.6278 74.365 31.4562C74.3626 32.2847 73.8608 32.7001 72.8593 32.7024H71.5547V29.2096H72.1329V30.2136H72.8593ZM72.1329 32.211H72.7888C73.0482 32.2274 73.3075 32.1791 73.5434 32.0705C73.7056 31.9758 73.7832 31.7722 73.7832 31.4562C73.7832 31.1403 73.7056 30.9402 73.5434 30.8454C73.3075 30.7369 73.0482 30.6886 72.7888 30.705H72.1329V32.211ZM74.8586 29.2096H75.4299V32.7024H74.8586V29.2096Z" fill="white"/>
<path d="M79.4768 29.2234V29.7148H78.158V32.7162H77.5798V29.7148H76.2539V29.2234H79.4768Z" fill="white"/>
<path d="M83.5202 32.7162H82.949V29.7219L83.0407 29.3919H82.8784L81.3199 32.7162H80.1563V29.2234H80.7346V32.2107L80.6429 32.5512H80.8051L82.3636 29.2234H83.5202V32.7162Z" fill="white"/>
<path d="M84.275 30.9155C84.2609 30.6787 84.2952 30.4415 84.3759 30.2182C84.4565 29.995 84.5817 29.7903 84.744 29.6166C84.9066 29.4587 85.1 29.3355 85.3122 29.2546C85.5245 29.1737 85.7511 29.1368 85.9781 29.1463C86.1971 29.1361 86.4158 29.1708 86.6208 29.2481C86.8257 29.3253 87.0126 29.4436 87.1699 29.5956C87.3242 29.7637 87.443 29.961 87.5193 30.1756C87.5956 30.3903 87.6279 30.618 87.6142 30.8453V31.0699H84.8392C84.8439 31.3933 84.9568 31.7058 85.16 31.9581C85.2747 32.0798 85.4153 32.1746 85.5715 32.2353C85.7277 32.2961 85.8955 32.3213 86.0627 32.3091C86.3138 32.3153 86.5605 32.2428 86.768 32.102C86.9627 31.9501 87.0955 31.7331 87.1417 31.4912H87.72C87.6817 31.6432 87.6261 31.7905 87.5543 31.93C87.4713 32.0764 87.3719 32.213 87.2581 32.3372C87.1166 32.4804 86.9458 32.5917 86.7574 32.6636C86.5318 32.7472 86.2928 32.7888 86.0522 32.7865C85.8037 32.8044 85.5545 32.7668 85.3226 32.6763C85.0907 32.5858 84.8822 32.4447 84.7122 32.2635C84.4052 31.8849 84.2462 31.4086 84.2644 30.9225M84.8286 30.6417H87.0395C87.0433 30.509 87.0203 30.377 86.9718 30.2533C86.9234 30.1297 86.8504 30.017 86.7574 29.922C86.6522 29.8235 86.5279 29.7474 86.392 29.6985C86.2562 29.6496 86.1117 29.6289 85.9675 29.6377C85.6655 29.624 85.3698 29.7271 85.1424 29.9255C85.0434 30.014 84.9643 30.1223 84.9102 30.2432C84.8561 30.3642 84.8283 30.4952 84.8286 30.6276" fill="white"/>
<path d="M93.5191 29.2234H94.0903V32.7162H93.5191V31.2103H91.5444V32.7162H90.9661V29.2234H91.5444V30.7188H93.5191V29.2234Z" fill="white"/>
<path d="M94.9133 30.9655C94.9024 30.7169 94.9421 30.4687 95.0301 30.2359C95.1182 30.0031 95.2526 29.7904 95.4255 29.6106C95.5983 29.4309 95.8058 29.2879 96.0357 29.1902C96.2655 29.0925 96.5128 29.0421 96.7627 29.0421C97.0126 29.0421 97.2599 29.0925 97.4898 29.1902C97.7196 29.2879 97.9272 29.4309 98.1 29.6106C98.2728 29.7904 98.4073 30.0031 98.4953 30.2359C98.5833 30.4687 98.6231 30.7169 98.6122 30.9655C98.6231 31.214 98.5833 31.4622 98.4953 31.695C98.4073 31.9279 98.2728 32.1406 98.1 32.3203C97.9272 32.5 97.7196 32.643 97.4898 32.7407C97.2599 32.8385 97.0126 32.8888 96.7627 32.8888C96.5128 32.8888 96.2655 32.8385 96.0357 32.7407C95.8058 32.643 95.5983 32.5 95.4255 32.3203C95.2526 32.1406 95.1182 31.9279 95.0301 31.695C94.9421 31.4622 94.9024 31.214 94.9133 30.9655ZM95.4916 30.9655C95.4826 31.3168 95.6087 31.6584 95.8442 31.9203C95.9637 32.0469 96.1096 32.1461 96.2716 32.211C96.4335 32.2759 96.6077 32.3048 96.7821 32.2959C96.9572 32.3057 97.1323 32.2764 97.2946 32.2102C97.4568 32.144 97.6022 32.0425 97.7201 31.9133C97.9367 31.6451 98.0548 31.3113 98.0548 30.9672C98.0548 30.6231 97.9367 30.2893 97.7201 30.0212C97.4679 29.7801 97.1318 29.6454 96.7821 29.6454C96.4324 29.6454 96.0963 29.7801 95.8442 30.0212C95.61 30.2797 95.4839 30.6175 95.4916 30.9655Z" fill="white"/>
<path d="M99.4167 32.7167V29.2239H100.686C101.048 29.202 101.41 29.2645 101.744 29.4064C101.839 29.471 101.92 29.5549 101.98 29.6527C102.04 29.7505 102.079 29.8599 102.094 29.9737C102.108 30.0875 102.099 30.2031 102.065 30.3129C102.032 30.4227 101.975 30.5241 101.899 30.6105C101.765 30.7218 101.598 30.787 101.423 30.7965V30.965C102.051 30.965 102.361 31.2529 102.361 31.7935C102.361 32.4078 101.896 32.7167 100.951 32.7167H99.4167ZM99.9809 30.6702H100.686C100.91 30.6857 101.134 30.6558 101.346 30.5824C101.465 30.5262 101.525 30.3823 101.525 30.1506C101.536 30.0757 101.523 29.9994 101.489 29.9318C101.455 29.8641 101.401 29.8083 101.335 29.7715C101.127 29.6981 100.906 29.6671 100.686 29.6802H99.9809V30.6702ZM99.9809 32.2604H100.947C101.168 32.2748 101.39 32.2401 101.596 32.1586C101.665 32.1107 101.719 32.0446 101.753 31.9677C101.787 31.8909 101.798 31.8063 101.786 31.7233C101.797 31.6344 101.785 31.5441 101.751 31.4611C101.718 31.3781 101.663 31.3052 101.592 31.2494C101.392 31.1521 101.169 31.1097 100.947 31.1265H99.9809V32.2604Z" fill="white"/>
<path d="M104.482 30.2136C105.483 30.2136 105.984 30.6278 105.984 31.4562C105.984 32.2847 105.483 32.7001 104.482 32.7024H103.177V29.2096H103.755V30.2136H104.482ZM103.755 32.211H104.411C104.67 32.2266 104.93 32.1784 105.166 32.0705C105.324 31.9758 105.406 31.7722 105.406 31.4562C105.423 31.3424 105.409 31.2262 105.367 31.1191C105.325 31.0119 105.256 30.9176 105.166 30.8454C104.93 30.7376 104.67 30.6893 104.411 30.705H103.755V32.211ZM106.477 29.2096H107.049V32.7024H106.477V29.2096Z" fill="white"/>
<path d="M107.874 32.7162L109.196 31.0488V30.8803L107.874 29.2234H108.558L109.626 30.6275L110.691 29.2234H111.375L110.056 30.8803V31.0488L111.375 32.7162H110.691L109.626 31.3015L108.558 32.7162H107.874Z" fill="white"/>
<path d="M114.534 32.7162V29.2234H116.984V29.7148H115.116V32.7162H114.534Z" fill="white"/>
<path d="M117.273 30.9655C117.262 30.7169 117.301 30.4687 117.389 30.2359C117.477 30.0031 117.612 29.7904 117.785 29.6106C117.958 29.4309 118.165 29.2879 118.395 29.1902C118.625 29.0925 118.872 29.0421 119.122 29.0421C119.372 29.0421 119.619 29.0925 119.849 29.1902C120.079 29.2879 120.286 29.4309 120.459 29.6106C120.632 29.7904 120.767 30.0031 120.855 30.2359C120.943 30.4687 120.982 30.7169 120.971 30.9655C120.982 31.214 120.943 31.4622 120.855 31.695C120.767 31.9279 120.632 32.1406 120.459 32.3203C120.286 32.5 120.079 32.643 119.849 32.7407C119.619 32.8385 119.372 32.8888 119.122 32.8888C118.872 32.8888 118.625 32.8385 118.395 32.7407C118.165 32.643 117.958 32.5 117.785 32.3203C117.612 32.1406 117.477 31.9279 117.389 31.695C117.301 31.4622 117.262 31.214 117.273 30.9655ZM117.851 30.9655C117.842 31.3168 117.968 31.6584 118.203 31.9203C118.323 32.0469 118.469 32.1461 118.631 32.211C118.793 32.2759 118.967 32.3048 119.141 32.2959C119.316 32.3061 119.491 32.2771 119.653 32.2108C119.814 32.1446 119.959 32.0429 120.076 31.9133C120.292 31.6451 120.411 31.3113 120.411 30.9672C120.411 30.6231 120.292 30.2893 120.076 30.0212C119.957 29.894 119.812 29.7945 119.651 29.7295C119.489 29.6646 119.315 29.636 119.141 29.6456C118.967 29.6366 118.793 29.6656 118.631 29.7305C118.469 29.7953 118.323 29.8945 118.203 30.0212C117.969 30.2797 117.843 30.6175 117.851 30.9655Z" fill="white"/>
<path d="M121.776 29.2231H122.354V29.7356L122.263 30.1357H122.425C122.502 29.8551 122.67 29.608 122.904 29.4337C123.178 29.2411 123.508 29.1448 123.842 29.1599C124.069 29.1517 124.295 29.1934 124.504 29.282C124.713 29.3705 124.9 29.5038 125.052 29.6724C125.351 30.0418 125.514 30.502 125.514 30.9765C125.514 31.451 125.351 31.9112 125.052 32.2806C124.9 32.4491 124.713 32.5824 124.504 32.671C124.295 32.7596 124.069 32.8013 123.842 32.7931C123.51 32.8066 123.182 32.7117 122.908 32.5228C122.672 32.3498 122.502 32.1024 122.425 31.8207H122.263L122.354 32.2139V34.0077H121.776V29.2231ZM122.354 30.9782C122.34 31.1601 122.366 31.3429 122.43 31.5139C122.494 31.6849 122.594 31.8399 122.725 31.9682C122.984 32.2016 123.324 32.3272 123.673 32.3192C123.842 32.3244 124.01 32.2961 124.167 32.2358C124.325 32.1755 124.468 32.0845 124.59 31.9682C124.715 31.8368 124.811 31.6809 124.872 31.5104C124.932 31.3399 124.956 31.1586 124.943 30.9782C124.956 30.7974 124.931 30.6157 124.871 30.4448C124.81 30.2738 124.714 30.1172 124.59 29.9848C124.468 29.8684 124.325 29.7774 124.167 29.7172C124.01 29.6569 123.842 29.6285 123.673 29.6338C123.326 29.6197 122.987 29.7377 122.725 29.9637C122.594 30.0936 122.494 30.2499 122.43 30.4219C122.366 30.594 122.34 30.7778 122.354 30.9607" fill="white"/>
<path d="M129.768 32.7162H129.196V29.7219L129.288 29.3919H129.126L127.567 32.7162H126.404V29.2234H126.982V32.2107L126.89 32.5512H127.052L128.611 29.2234H129.768V32.7162Z" fill="white"/>
<path d="M130.592 31.3507H131.157C131.127 31.6221 131.203 31.8945 131.368 32.1124C131.472 32.1937 131.591 32.2538 131.718 32.2893C131.845 32.3248 131.978 32.3351 132.109 32.3195C132.33 32.3403 132.552 32.2845 132.736 32.1616C132.801 32.0972 132.851 32.0196 132.883 31.9342C132.914 31.8487 132.927 31.7574 132.92 31.6666C132.926 31.587 132.916 31.5069 132.89 31.4313C132.864 31.3558 132.823 31.2865 132.768 31.2278C132.631 31.1264 132.462 31.0777 132.292 31.0909H131.82V30.6346H132.292C132.448 30.65 132.603 30.6047 132.726 30.5082C132.815 30.4026 132.859 30.2666 132.849 30.1291C132.853 30.0563 132.841 29.9836 132.812 29.9166C132.783 29.8496 132.739 29.7901 132.683 29.7429C132.501 29.637 132.291 29.5904 132.08 29.6095C131.845 29.5835 131.607 29.642 131.411 29.7745C131.347 29.848 131.299 29.9333 131.269 30.0256C131.24 30.1179 131.229 30.2151 131.238 30.3116H130.674C130.664 30.1517 130.691 29.9918 130.752 29.8436C130.813 29.6954 130.907 29.5626 131.026 29.4551C131.332 29.2326 131.707 29.1256 132.084 29.1532C132.431 29.1317 132.776 29.2215 133.068 29.4094C133.177 29.4811 133.266 29.5787 133.328 29.6933C133.389 29.8079 133.421 29.9359 133.42 30.0659C133.42 30.4836 133.184 30.7223 132.715 30.768V30.9294C133.23 31.0067 133.491 31.2805 133.491 31.7228C133.498 31.8691 133.469 32.0148 133.408 32.1479C133.346 32.281 133.254 32.3976 133.138 32.488C132.842 32.6946 132.484 32.7948 132.123 32.7724C131.118 32.7724 130.617 32.2915 130.617 31.3366" fill="white"/>
<path d="M134.291 30.9655C134.28 30.7169 134.32 30.4687 134.408 30.2359C134.496 30.0031 134.63 29.7904 134.803 29.6106C134.976 29.4309 135.183 29.2879 135.413 29.1902C135.643 29.0925 135.89 29.0421 136.14 29.0421C136.39 29.0421 136.638 29.0925 136.867 29.1902C137.097 29.2879 137.305 29.4309 137.478 29.6106C137.65 29.7904 137.785 30.0031 137.873 30.2359C137.961 30.4687 138.001 30.7169 137.99 30.9655C138.001 31.214 137.961 31.4622 137.873 31.695C137.785 31.9279 137.65 32.1406 137.478 32.3203C137.305 32.5 137.097 32.643 136.867 32.7407C136.638 32.8385 136.39 32.8888 136.14 32.8888C135.89 32.8888 135.643 32.8385 135.413 32.7407C135.183 32.643 134.976 32.5 134.803 32.3203C134.63 32.1406 134.496 31.9279 134.408 31.695C134.32 31.4622 134.28 31.214 134.291 30.9655ZM134.869 30.9655C134.86 31.3168 134.986 31.6584 135.222 31.9203C135.341 32.0469 135.487 32.1461 135.649 32.211C135.811 32.2759 135.985 32.3048 136.16 32.2959C136.334 32.3061 136.509 32.2771 136.671 32.2108C136.833 32.1446 136.977 32.0429 137.094 31.9133C137.313 31.6462 137.433 31.312 137.433 30.9672C137.433 30.6224 137.313 30.2882 137.094 30.0212C136.976 29.894 136.831 29.7945 136.669 29.7295C136.508 29.6646 136.334 29.636 136.16 29.6456C135.985 29.6366 135.811 29.6656 135.649 29.7305C135.487 29.7953 135.341 29.8945 135.222 30.0212C134.988 30.2797 134.862 30.6175 134.869 30.9655Z" fill="white"/>
<path d="M141.346 29.2234H141.917V32.7162H141.346V31.2103H139.371V32.7162H138.793V29.2234H139.371V30.7188H141.346V29.2234Z" fill="white"/>
<path d="M145.969 29.2234V29.7148H144.65V32.7162H144.072V29.7148H142.742V29.2234H145.969Z" fill="white"/>
<path d="M146.21 30.9655C146.199 30.7169 146.239 30.4687 146.327 30.2359C146.415 30.0031 146.549 29.7904 146.722 29.6106C146.895 29.4309 147.103 29.2879 147.332 29.1902C147.562 29.0925 147.81 29.0421 148.06 29.0421C148.309 29.0421 148.557 29.0925 148.787 29.1902C149.016 29.2879 149.224 29.4309 149.397 29.6106C149.57 29.7904 149.704 30.0031 149.792 30.2359C149.88 30.4687 149.92 30.7169 149.909 30.9655C149.92 31.214 149.88 31.4622 149.792 31.695C149.704 31.9279 149.57 32.1406 149.397 32.3203C149.224 32.5 149.016 32.643 148.787 32.7407C148.557 32.8385 148.309 32.8888 148.06 32.8888C147.81 32.8888 147.562 32.8385 147.332 32.7407C147.103 32.643 146.895 32.5 146.722 32.3203C146.549 32.1406 146.415 31.9279 146.327 31.695C146.239 31.4622 146.199 31.214 146.21 30.9655ZM146.788 30.9655C146.779 31.3168 146.906 31.6584 147.141 31.9203C147.261 32.0469 147.406 32.1461 147.568 32.211C147.73 32.2759 147.905 32.3048 148.079 32.2959C148.254 32.3057 148.429 32.2764 148.591 32.2102C148.754 32.144 148.899 32.0425 149.017 31.9133C149.234 31.6451 149.352 31.3113 149.352 30.9672C149.352 30.6231 149.234 30.2893 149.017 30.0212C148.765 29.7801 148.429 29.6454 148.079 29.6454C147.729 29.6454 147.393 29.7801 147.141 30.0212C146.907 30.2797 146.781 30.6175 146.788 30.9655Z" fill="white"/>
<path d="M150.723 32.7167V29.2239H151.992C152.354 29.202 152.716 29.2645 153.05 29.4064C153.145 29.471 153.226 29.5549 153.286 29.6527C153.346 29.7505 153.385 29.8599 153.4 29.9737C153.414 30.0875 153.405 30.2031 153.371 30.3129C153.338 30.4227 153.281 30.5241 153.205 30.6105C153.071 30.7218 152.904 30.787 152.729 30.7965V30.965C153.357 30.965 153.667 31.2529 153.667 31.7935C153.667 32.4078 153.202 32.7167 152.257 32.7167H150.723ZM151.287 30.6702H151.992C152.216 30.6857 152.44 30.6558 152.652 30.5824C152.771 30.5262 152.831 30.3823 152.831 30.1506C152.842 30.0757 152.829 29.9994 152.795 29.9318C152.761 29.8641 152.707 29.8083 152.641 29.7715C152.433 29.6981 152.212 29.6671 151.992 29.6802H151.287V30.6702ZM151.287 32.2604H152.253C152.474 32.2748 152.696 32.2401 152.902 32.1586C152.971 32.1107 153.025 32.0446 153.059 31.9677C153.093 31.8909 153.104 31.8063 153.092 31.7233C153.102 31.6381 153.09 31.5519 153.058 31.4723C153.026 31.3927 152.975 31.3222 152.909 31.2669C152.708 31.1701 152.486 31.1278 152.264 31.1441H151.287V32.2604Z" fill="white"/>
<path d="M55.319 11.4888H62.4546C63.7742 11.4436 65.0585 11.9177 66.0295 12.8085C66.4949 13.2437 66.8614 13.7729 67.1047 14.3607C67.3479 14.9484 67.4621 15.5811 67.4397 16.2164C67.4648 16.8458 67.3517 17.4731 67.1081 18.0544C66.8645 18.6358 66.4964 19.1572 66.0295 19.5823C65.0462 20.4478 63.7663 20.9039 62.4546 20.8563H58.0724V23.5448H55.3366L55.319 11.4888ZM58.0548 13.9737V18.3749H62.3453C62.9689 18.4055 63.5813 18.2027 64.0622 17.8063C64.2812 17.6053 64.4527 17.3585 64.5643 17.0835C64.6758 16.8086 64.7247 16.5124 64.7074 16.2164C64.7212 15.9145 64.6709 15.6131 64.5598 15.3319C64.4486 15.0506 64.2791 14.7959 64.0622 14.5844C63.5933 14.1633 62.9761 13.9438 62.3453 13.9737H58.0548Z" fill="white"/>
<path d="M69.3008 11.4887H76.4364C77.7569 11.4441 79.0421 11.9181 80.0147 12.8084C80.4798 13.2439 80.8461 13.7732 81.0893 14.3609C81.3325 14.9485 81.4469 15.5811 81.4249 16.2163C81.4249 18.0484 80.6446 19.3845 79.084 20.2245L80.9419 23.5377H77.9664L76.5562 20.8562H72.0365V23.5447H69.3008V11.4887ZM72.0365 13.9736V18.3748H76.3271C76.9506 18.4054 77.5631 18.2026 78.044 17.8063C78.263 17.6053 78.4344 17.3584 78.546 17.0835C78.6576 16.8085 78.7065 16.5124 78.6892 16.2163C78.703 15.9144 78.6527 15.613 78.5415 15.3318C78.4303 15.0506 78.2608 14.7959 78.044 14.5843C77.575 14.1633 76.9579 13.9438 76.3271 13.9736H72.0365Z" fill="white"/>
<path d="M88.0567 11.4883H92.4988L97.639 23.5442H94.7375L93.9478 21.7121H86.5019L85.7122 23.5442H82.7825L88.0567 11.4883ZM89.763 13.9065L87.5067 19.3325H92.8901L90.7043 13.9065H89.763Z" fill="white"/>
<path d="M99.3919 11.4883H101.973L109.214 19.5923V11.4883H111.929V23.5372H109.327L102.082 15.4122V23.5372H99.3919V11.4883Z" fill="white"/>
<path d="M118.951 11.4883H123.394L128.537 23.5442H125.65L124.86 21.7121H117.4L116.596 23.5442H113.667L118.951 11.4883ZM120.661 13.9065L118.405 19.3325H123.788L121.599 13.9065H120.661Z" fill="white"/>
<path d="M139.324 11.4883H136.589V23.5337H139.324V11.4883Z" fill="white"/>
<path d="M141.078 11.4883H153.657V13.9311H148.736V23.5372H146V13.9311H141.078V11.4883Z" fill="white"/>
</svg>
