<svg width="109" height="32" viewBox="0 0 109 32" fill="none" xmlns="http://www.w3.org/2000/svg">
<g id="Group 1587">
<g id="Group 1585">
<rect id="Rectangle 661" x="38.9998" y="0.666504" width="30.6667" height="30.6667" rx="5.33333" fill="#1D1F2C"/>
<g id="Mask group">
<mask id="mask0_938_133" style="mask-type:alpha" maskUnits="userSpaceOnUse" x="46" y="8" width="16" height="16">
<rect id="Rectangle 663" x="46.9998" y="8.6665" width="14.6667" height="14.6667" fill="#D9D9D9"/>
</mask>
<g mask="url(#mask0_938_133)">
<path id="telegram" fill-rule="evenodd" clip-rule="evenodd" d="M55.884 12.2206C54.5704 12.7636 51.9451 13.8873 48.008 15.5918C47.3687 15.8445 47.0338 16.0916 47.0033 16.3333C46.9518 16.7417 47.4665 16.9025 48.1673 17.1215C48.2627 17.1513 48.3615 17.1822 48.4627 17.2149C49.1523 17.4376 50.0799 17.6982 50.5621 17.7086C50.9995 17.718 51.4877 17.5388 52.0267 17.171C55.7052 14.7035 57.604 13.4563 57.7232 13.4294C57.8073 13.4104 57.9239 13.3866 58.0029 13.4563C58.0818 13.5261 58.0741 13.6582 58.0657 13.6936C58.0147 13.9096 55.9944 15.7761 54.9488 16.742C54.6229 17.0431 54.3917 17.2567 54.3444 17.3055C54.2385 17.4148 54.1306 17.5182 54.0269 17.6175C53.3863 18.2312 52.9059 18.6914 54.0535 19.4429C54.605 19.804 55.0463 20.1027 55.4866 20.4006C55.9674 20.726 56.447 21.0505 57.0674 21.4547C57.2255 21.5577 57.3765 21.6646 57.5236 21.7688C58.0831 22.1652 58.5858 22.5213 59.2069 22.4645C59.5677 22.4315 59.9405 22.0943 60.1298 21.0886C60.5772 18.7119 61.4567 13.5621 61.6599 11.4401C61.6777 11.2541 61.6553 11.0162 61.6373 10.9117C61.6193 10.8073 61.5817 10.6585 61.4451 10.5483C61.2833 10.4178 61.0335 10.3903 60.9218 10.3922C60.4138 10.4012 59.6345 10.6704 55.884 12.2206Z" fill="white"/>
</g>
</g>
</g>
<g id="Group 1584">
<rect id="Rectangle 662" x="77.6663" y="0.666504" width="30.6667" height="30.6667" rx="5.33333" fill="#1D1F2C"/>
<g id="Group 1583">
<path id="whatsapp" fill-rule="evenodd" clip-rule="evenodd" d="M98.1329 10.7748C96.7579 9.39984 94.9246 8.6665 92.9996 8.6665C88.9663 8.6665 85.6663 11.9665 85.6663 15.9998C85.6663 17.2832 86.0329 18.5665 86.6746 19.6665L85.6663 23.3332L89.5163 22.3248C90.6163 22.8748 91.8079 23.2415 92.9996 23.2415C97.0329 23.2415 100.333 19.9415 100.333 15.9082C100.333 13.9832 99.5079 12.1498 98.1329 10.7748ZM89.8829 21.2248C90.7996 21.7748 91.8996 22.0498 92.9996 22.0498C96.3913 22.0498 99.0496 19.2998 99.0496 16.0915C99.0496 14.4415 98.4996 12.9748 97.3079 11.7832C96.1163 10.6832 94.6496 10.0415 92.9996 10.0415C89.6996 10.0415 86.9496 12.7915 86.9496 16.0915C86.9496 17.1915 87.2246 18.2915 87.8663 19.2998L88.0496 19.5748L87.4079 21.7748L89.6996 21.1332L89.8829 21.2248ZM96.2996 17.4665C96.1163 17.3748 95.1996 16.9165 95.0163 16.9165C94.8329 16.8248 94.7412 16.8248 94.6496 17.0082C94.6037 17.0998 94.4892 17.2373 94.3746 17.3748C94.26 17.5123 94.1454 17.6498 94.0996 17.7415C94.0079 17.8332 93.9162 17.8332 93.7329 17.8332C93.7043 17.8189 93.6667 17.8023 93.6209 17.7821C93.3734 17.6731 92.8851 17.458 92.2663 16.9165C91.7163 16.4582 91.3496 15.8165 91.2579 15.6332C91.1663 15.4498 91.2579 15.3582 91.3496 15.2665L91.6246 14.9915C91.6704 14.9457 91.6933 14.8998 91.7163 14.854C91.7392 14.8082 91.7621 14.7623 91.8079 14.7165C91.869 14.6554 91.8487 14.5943 91.8283 14.5332C91.8181 14.5026 91.8079 14.4721 91.8079 14.4415C91.8079 14.3498 91.4413 13.4332 91.2579 13.0665C91.1663 12.7915 90.9829 12.7915 90.8913 12.7915H90.5246C90.4329 12.7915 90.2496 12.7915 90.0662 12.9748C89.8829 13.1582 89.4246 13.6165 89.4246 14.5332C89.4246 15.2938 89.8664 15.9912 90.0691 16.3114C90.1108 16.3771 90.1423 16.427 90.1579 16.4582C90.1693 16.4695 90.1975 16.5089 90.2416 16.5707C90.5544 17.0081 91.6682 18.5656 93.2746 19.2082C94.5689 19.7411 94.9779 19.7049 95.2894 19.6774C95.353 19.6718 95.4125 19.6665 95.4746 19.6665C95.8413 19.6665 96.5746 19.2082 96.6663 18.8415C96.8496 18.3832 96.8496 18.0165 96.7579 18.0165C96.6805 17.6295 96.5378 17.5693 96.3849 17.5047C96.3567 17.4928 96.3281 17.4808 96.2996 17.4665Z" fill="white"/>
</g>
</g>
<g id="Group 1586">
<rect id="Rectangle 644" x="0.333008" y="0.666504" width="30.6667" height="30.6667" rx="5.33333" fill="#1D1F2C"/>
<path id="vk" fill-rule="evenodd" clip-rule="evenodd" d="M8.33301 15.7065C8.33301 12.3869 8.33301 10.7296 9.35967 9.69317C10.401 8.6665 12.0583 8.6665 15.373 8.6665H15.9597C19.2792 8.6665 20.9366 8.6665 21.973 9.69317C22.9997 10.7345 22.9997 12.3918 22.9997 15.7065V16.2932C22.9997 19.6127 22.9997 21.2701 21.973 22.3065C20.9317 23.3332 19.2743 23.3332 15.9597 23.3332H15.373C12.0535 23.3332 10.3961 23.3332 9.35967 22.3065C8.33301 21.2652 8.33301 19.6078 8.33301 16.2932V15.7065ZM10.8068 13.13C10.885 16.9434 12.7917 19.2314 16.1357 19.2314H16.3312V17.0509C17.5583 17.1732 18.4872 18.0727 18.8588 19.2314H20.5943C20.4163 18.573 20.1008 17.9598 19.6685 17.4323C19.2362 16.9047 18.6969 16.4748 18.0863 16.1709C18.6335 15.8377 19.106 15.3953 19.4745 14.8712C19.8429 14.3472 20.0993 13.7528 20.2277 13.1252H18.6535C18.3112 14.3376 17.2943 15.4376 16.3312 15.5403V13.13H14.7521V17.354C13.7743 17.1096 12.5423 15.9265 12.4886 13.13H10.8068Z" fill="white"/>
</g>
</g>
</svg>
