<svg width="34" height="35" viewBox="0 0 34 35" fill="none" xmlns="http://www.w3.org/2000/svg">
<g id="Video">
<path id="Vector" d="M30.2085 28.0818C30.2085 28.3581 30.0988 28.623 29.9034 28.8184C29.7081 29.0137 29.4431 29.1235 29.1669 29.1235H4.16685C3.89058 29.1235 3.62563 29.0137 3.43028 28.8184C3.23493 28.623 3.12518 28.3581 3.12518 28.0818C3.12518 27.8055 3.23493 27.5406 3.43028 27.3452C3.62563 27.1499 3.89058 27.0401 4.16685 27.0401H29.1669C29.4431 27.0401 29.7081 27.1499 29.9034 27.3452C30.0988 27.5406 30.2085 27.8055 30.2085 28.0818ZM30.2085 8.29012V22.8735C30.2085 23.426 29.989 23.9559 29.5983 24.3466C29.2076 24.7373 28.6777 24.9568 28.1252 24.9568H5.20852C4.65598 24.9568 4.12608 24.7373 3.73538 24.3466C3.34468 23.9559 3.12518 23.426 3.12518 22.8735V8.29012C3.12518 7.73759 3.34468 7.20768 3.73538 6.81698C4.12608 6.42628 4.65598 6.20679 5.20852 6.20679H28.1252C28.6777 6.20679 29.2076 6.42628 29.5983 6.81698C29.989 7.20768 30.2085 7.73759 30.2085 8.29012ZM21.3544 15.5818C21.3543 15.4065 21.31 15.234 21.2256 15.0804C21.1411 14.9267 21.0193 14.7969 20.8713 14.7029L15.1421 11.057C14.9846 10.957 14.8032 10.9011 14.6167 10.8951C14.4302 10.8892 14.2456 10.9334 14.0821 11.0233C13.9185 11.1131 13.7821 11.2452 13.6871 11.4057C13.5921 11.5663 13.5419 11.7494 13.5419 11.936V19.2276C13.5419 19.4142 13.5921 19.5973 13.6871 19.7579C13.7821 19.9184 13.9185 20.0505 14.0821 20.1403C14.2456 20.2301 14.4302 20.2744 14.6167 20.2684C14.8032 20.2625 14.9846 20.2066 15.1421 20.1065L20.8713 16.4607C21.0193 16.3667 21.1411 16.2368 21.2256 16.0832C21.31 15.9296 21.3543 15.7571 21.3544 15.5818Z" fill="white"/>
</g>
</svg>
