<svg width="34" height="34" viewBox="0 0 34 34" fill="none" xmlns="http://www.w3.org/2000/svg">
<g id="cil:mic">
<path id="Vector" d="M17 21.7812C18.6902 21.7794 20.3106 21.1071 21.5057 19.912C22.7008 18.7168 23.3731 17.0964 23.375 15.4062V7.4375C23.375 5.74675 22.7034 4.12524 21.5078 2.92969C20.3123 1.73415 18.6908 1.0625 17 1.0625C15.3092 1.0625 13.6877 1.73415 12.4922 2.92969C11.2967 4.12524 10.625 5.74675 10.625 7.4375V15.4062C10.6269 17.0964 11.2992 18.7168 12.4943 19.912C13.6894 21.1071 15.3098 21.7794 17 21.7812ZM12.75 7.4375C12.75 6.31033 13.1978 5.22933 13.9948 4.4323C14.7918 3.63527 15.8728 3.1875 17 3.1875C18.1272 3.1875 19.2082 3.63527 20.0052 4.4323C20.8022 5.22933 21.25 6.31033 21.25 7.4375V15.4062C21.25 16.5334 20.8022 17.6144 20.0052 18.4115C19.2082 19.2085 18.1272 19.6562 17 19.6562C15.8728 19.6562 14.7918 19.2085 13.9948 18.4115C13.1978 17.6144 12.75 16.5334 12.75 15.4062V7.4375Z" fill="black" fill-opacity="0.6"/>
<path id="Vector_2" d="M26.5625 11.6875V15.4062C26.5625 20.6789 22.2727 24.9688 17 24.9688C11.7273 24.9688 7.4375 20.6789 7.4375 15.4062V11.6875H5.3125V15.4062C5.3125 21.4926 9.98909 26.5063 15.9375 27.0449V32.9375H18.0625V27.0449C24.0109 26.5063 28.6875 21.4926 28.6875 15.4062V11.6875H26.5625Z" fill="black" fill-opacity="0.6"/>
</g>
</svg>
